<?xml version="1.0" encoding="UTF-8" standalone="no"?>
<!-- Created with Inkscape (http://www.inkscape.org/) -->

<svg
   xmlns:dc="http://purl.org/dc/elements/1.1/"
   xmlns:cc="http://creativecommons.org/ns#"
   xmlns:rdf="http://www.w3.org/1999/02/22-rdf-syntax-ns#"
   xmlns:svg="http://www.w3.org/2000/svg"
   xmlns="http://www.w3.org/2000/svg"
   xmlns:sodipodi="http://sodipodi.sourceforge.net/DTD/sodipodi-0.dtd"
   xmlns:inkscape="http://www.inkscape.org/namespaces/inkscape"
   width="474.73807mm"
   height="185.20834mm"
   viewBox="0 0 1682.1427 656.25004"
   id="svg2"
   version="1.1"
   inkscape:version="0.92.1 r15371"
   sodipodi:docname="logo.svg">
  <defs
     id="defs4" />
  <sodipodi:namedview
     id="base"
     pagecolor="#ffffff"
     bordercolor="#666666"
     borderopacity="1.0"
     inkscape:pageopacity="0.0"
     inkscape:pageshadow="2"
     inkscape:zoom="0.49497475"
     inkscape:cx="574.50045"
     inkscape:cy="364.1633"
     inkscape:document-units="px"
     inkscape:current-layer="layer1"
     showgrid="false"
     inkscape:window-width="1871"
     inkscape:window-height="1056"
     inkscape:window-x="49"
     inkscape:window-y="24"
     inkscape:window-maximized="1"
     fit-margin-top="0"
     fit-margin-left="0"
     fit-margin-right="0"
     fit-margin-bottom="0" />
  <metadata
     id="metadata7">
    <rdf:RDF>
      <cc:Work
         rdf:about="">
        <dc:format>image/svg+xml</dc:format>
        <dc:type
           rdf:resource="http://purl.org/dc/dcmitype/StillImage" />
        <dc:title></dc:title>
      </cc:Work>
    </rdf:RDF>
  </metadata>
  <g
     inkscape:label="Layer 1"
     inkscape:groupmode="layer"
     id="layer1"
     transform="translate(234.54446,-428.55716)">
    <rect
       style="fill:#2980b9;fill-opacity:1;stroke:none;stroke-width:1.77165353;stroke-linecap:round;stroke-linejoin:miter;stroke-miterlimit:4;stroke-dasharray:none;stroke-dashoffset:0;stroke-opacity:1"
       id="rect4510"
       width="1682.1427"
       height="656.25"
       x="-234.54446"
       y="428.55716"
       ry="328.125" />
    <g
       id="g4493"
       style="fill:#ffffff;fill-opacity:1;stroke:none"
       transform="translate(-16.071426,5.3571382)">
      <path
         inkscape:connector-curvature="0"
         id="path3439"
         d="m 213.31428,1014.4366 c 5.7574,-4.2134 21.5979,-20.96851 25.7828,-27.27141 4.28,-6.4462 2.9855,-0.2806 17.7146,-84.3744 25.7494,-147.01293 41.1512,-221.04303 61.3056,-294.67013 9.0812,-33.1753 10.0351,-38.3832 9.2982,-50.7664 -0.667,-11.2075 -2.7418,-18.7698 -6.3148,-23.0161 -7.2811,-8.6532 -24.6463,0.9235 -46.7009,25.755 -34.93483,24.3152 -62.59481,123.51213 -105.7863,119.8721 -20.3939,-2.4154 -36.4386,-27.5414 -45.3188,-70.9695 -13.28018,-25.7377 18.32088,-135.18583 -31.080403,-110.9687 -12.367,6.2047 -27.9405,18.9693 -31.76519,26.036 -3.2848,6.0691 -4.33442,12.2196 -6.26779,36.7277 -0.86776,11 -4.48549,53.2611 -8.0394,93.9136 -42.7388777,174.35401 6.461423,297.84877 39.07758,73.0864 7.8297,-52.6899 8.4703,-56.5 9.4984,-56.5 0.4391,0 1.6304,2.1284 2.6473,4.7298 47.123243,120.00605 117.992843,-13.21724 169.548503,-46.7298 1.2561,0 0.943,3.3491 -0.7594,8.1243 -4.5846,12.8592 -19.894,87.0705 -28.34,137.37573 -9.5991,57.1738 -34.4111,225.38511 -34.5303,234.09631 -0.118,8.6257 3.2675,10.4988 10.0303,5.5495 z"
         style="fill:#ffffff;fill-opacity:1;stroke:none" />
      <path
         sodipodi:nodetypes="scsscccsccssscscssscscscczcszcssscs"
         inkscape:connector-curvature="0"
         id="path3437"
         d="m 311.11168,1011.4526 c 4.8258,-3.2665 10.6797,-10.9042 14.1243,-18.42811 2.5407,-5.5498 5.6341,-18.4108 30.4824,-126.7337 12.4683,-54.3542 26.7971,-112.49903 35.856,-145.50003 6.8082,-24.802 16.3811,-57.4784 18.1636,-62 l 1.1826,-3 1.8013,4 c 0.9908,2.2 17.8878,40.45 37.549,85 19.66112,44.55003 37.02582,83.56803 38.58802,86.70673 3.614,7.2608 7.9283,12.1657 13.6504,15.519 8.5324,5.0004 20.6382,2.9646 34.0964,-5.7339 11.0767,-7.1593 14.6264,-11.182 17.9347,-20.3248 8.0412,-22.2229 17.0411,-79.02073 26.0924,-164.66703 6.0701,-57.4375 14.3927,-147.7644 14.4858,-157.2173 0.086,-8.6894 -0.1324,-9.946 -2.0609,-11.8789 -5.8526,-5.8658 -18.2753,4.1758 -27.186,21.9751 -2.7695,5.5323 -5.7409,12.4353 -6.6031,15.3399 -0.8622,2.9047 -3.1491,20.3562 -5.082,38.7812 -8.0855,77.0726 -18.7293,154.5562 -31.0289,225.88033 -0.3206,1.8592 -0.9584,2.9841 -1.4175,2.5 -0.9442,-0.9959 -82.03182,-193.69483 -84.10952,-199.88033 -0.739,-2.2 -1.343,-7.825 -1.3422,-12.5 0,-7.6089 0.5045,-9.9153 4.8008,-22 11.4079,-32.0884 11.9505,-33.9028 10.6184,-35.508 -3.58897,-1.39052 -9.25694,-5.72846 -11.9934,-5.408 -12.66532,2.35676 -15.9002,17.54752 -17.6752,19.0528 -1.775,1.50528 -3.0572,3.0572 -3.0572,3.0572 l -4.0122,-2.5328 c -8.9855,-5.6723 -19.25532,-7.76065 -25.5529,-6.7057 -6.29758,1.05495 -13.29012,2.95439 -16.1934,7.3653 -4.62874,7.47059 -0.93531,17.56408 -1.9692,26.2914 -9.90859,83.64127 1.1104,24.223 -40.5237,249.40773 -17.5433,94.8859 -32.315,176.7859 -32.826,182 -1.2097,12.34461 -0.6498,16.47341 2.5781,19.01251 2.9497,2.3202 4.9607,1.9663 10.6291,-1.8706 z"
         style="fill:#ffffff;fill-opacity:1;stroke:none" />
      <path
         inkscape:connector-curvature="0"
         id="path3425"
         d="m 839.2143,934.34739 c 97.2919,-2.2653 204.2568,-5.5093 218.5,-6.6266 10.6068,-0.8321 88.246,-9.1087 108,-11.5132 38.6408,-4.7035 50,-7.0701 50,-10.4168 0,-4.9821 -19.7711,-6.9588 -60.5,-6.0489 -16.5,0.3687 -37.7563,1.0826 -47.2362,1.5867 -9.48,0.504 -42.78,1.6105 -74,2.4589 -31.2201,0.8483 -111.2138,3.0985 -177.7638,5.0004 -159.2607,4.5515 -228.5514,6.4183 -270.5,7.2878 -33.9931,0.7046 -34.5044,0.7459 -34.7992,2.8095 -0.47,3.2905 8.9462,9.0952 22.0387,13.5859 l 11.2605,3.8622 106,-0.4923 c 58.3,-0.2709 125.35,-0.943 149,-1.4936 z"
         style="fill:#ffffff;fill-opacity:1;stroke:none" />
      <path
         inkscape:connector-curvature="0"
         id="path3415"
         d="m 860.2992,864.80609 c 17.7254,-8.6332 43.0895,-45.9964 63.2989,-93.2436 13.9335,-32.57503 26.7622,-71.27693 29.0251,-87.56393 0.8963,-6.4508 0.8249,-8.4092 -0.4151,-11.377 -1.4866,-3.5577 -1.5363,-3.5812 -6.5662,-3.0979 -5.7194,0.5496 -11.5277,4.0966 -15.9938,9.7671 -1.5162,1.925 -14.9985,29.825 -29.9607,62 -35.7226,76.81853 -35.6658,76.70733 -38.0357,74.33743 -0.4885,-0.4885 -1.8815,-6.5018 -3.0954,-13.3628 -2.4097,-13.6191 -2.7764,-30.4927 -1.8142,-83.47463 0.4621,-25.4457 0.4246,-26.0891 -1.761,-30.1773 -3.4536,-6.4599 -6.82,-6.6592 -17.5481,-1.0393 -9.6117,5.0352 -15.6618,12.6986 -37.2855,47.2282 -20.529,32.78163 -28.6637,43.48843 -33.0409,43.48843 -1.4028,0 -2.3923,-0.5889 -2.3923,-1.4236 0,-0.783 2.2301,-6.5346 4.9557,-12.78133 6.6849,-15.3206 8.0864,-21.1812 8.1124,-33.9241 0.034,-16.8386 -3.2596,-26.2913 -12.1942,-34.9938 -9.9778,-9.7187 -23.707,-13.852 -46.2119,-13.9126 -9.5222,-0.026 -13.8533,-0.4307 -15.662,-1.4646 -3.4844,-1.9918 -10.7466,-1.8053 -15.5,0.3981 -6.4134,2.9729 -17.0853,13.1591 -36.8535,35.1761 -20.0467,22.3273 -32.4302,34.4928 -45.6074,44.8047 -4.6535,3.6416 -9.6795,7.78753 -11.1689,9.21313 -8.787,8.4105 -3.6389,33.0954 6.3725,30.5559 1.2415,-0.315 6.3955,-4.3499 11.4534,-8.9666 8.5508,-7.805 14.5833,-11.7352 15.9361,-10.3824 0.3125,0.3124 -0.1562,3.4562 -1.0415,6.9861 -5.9849,23.8641 -2.994,42.4518 8.5716,53.27 18.6167,17.4138 48.5917,12.4233 85.1064,-14.1691 4.8227,-3.5122 9.3801,-6.3859 10.1275,-6.3859 0.7474,0 1.9765,0.7463 2.7314,1.6585 4.5412,5.4877 16.1095,6.8345 24.1248,2.8086 7.401,-3.7173 11.3958,-7.0885 30.7476,-25.9483 16.8533,-16.4248 26.7217,-25.2326 27.3494,-24.4101 0.1642,0.2152 1.319,16.1413 2.5662,35.3913 1.2472,19.25 2.6645,36.5792 3.1497,38.5093 1.958,7.7891 9.0613,15.2398 17.6511,18.5146 5.6924,2.1701 13.9136,1.3788 20.8685,-2.0086 z"
         style="fill:#ffffff;fill-opacity:1;stroke:none" />
      <path
         inkscape:connector-curvature="0"
         id="path3403"
         d="m 977.0206,853.81849 c 17.8725,-6.2139 41.865,-24.1991 73.3202,-54.962 9.9159,-9.6977 11.3735,-10.7983 11.3735,-8.5879 0,1.3945 -0.4227,4.0092 -0.9393,5.8106 -2.0595,7.1811 2.2279,20.9149 8.9022,28.5166 3.0821,3.5103 12.4285,8.9431 17.4026,10.1156 5.1934,1.2242 16.5441,0.7474 22.3885,-0.9405 7.9883,-2.3071 17.8892,-7.6825 24.5972,-13.3543 7.587,-6.4151 17.6349,-18.1432 17.6709,-20.6258 0.046,-3.2031 -8.2453,-23.3717 -9.8639,-23.9928 -2.7873,-1.0696 -8.926,4.2524 -13.1965,11.4405 -3.5336,5.948 -4.6618,7.093 -7.5162,7.6285 -5.2928,0.9929 -10.3644,-2.0564 -13.4137,-8.0653 -2.4678,-4.863 -2.5249,-5.4442 -2.2595,-23.00003 0.3095,-20.464 -0.5793,-26.0223 -4.9009,-30.6486 -2.7791,-2.975 -3.2226,-3.1082 -8.6976,-2.6118 -11.2299,1.0183 -27.1855,9.5237 -45.0686,24.0245 -4.1829,3.3917 -15.2552,13.65723 -24.6052,22.81223 -17.8839,17.511 -22.5,21.1607 -22.5,17.7898 0,-1.5676 7.9432,-12.5314 16.7113,-23.0661 19.3597,-23.26053 55.1638,-58.58613 78.7887,-77.73573 5.5,-4.4582 11.9125,-9.8776 14.25,-12.0432 4.0186,-3.723 4.25,-4.2401 4.25,-9.4994 0,-4.9399 -0.3831,-5.9797 -3.4256,-9.2973 -3.3647,-3.669 -3.5556,-3.7348 -10.75,-3.7078 -6.196,0.023 -8.6019,0.5868 -15.6169,3.6582 -16.157,7.0741 -35.7256,20.9132 -66.1957,46.8143 -10.0288,8.525 -23.4717,19.9187 -29.873,25.3193 -6.4014,5.4006 -13.902,12.0372 -16.6682,14.748 -2.7662,2.7108 -7.9321,6.8421 -11.4798,9.1807 -7.3372,4.8365 -12.603,11.16803 -13.5685,16.31433 -0.5003,2.6668 0.1206,5.5797 2.576,12.0852 4.1829,11.0827 3.8727,15.3447 -1.7723,24.3525 -12.1072,19.3197 -8.6883,38.7404 7.7675,44.1231 3.9081,1.2783 14.8228,0.01 22.3128,-2.5954 z"
         style="fill:#ffffff;fill-opacity:1;stroke:none" />
    </g>
    <path
       style="fill:#2980b9;fill-opacity:1"
       d="m 655.98432,816.34329 c -5.0952,-1.0313 -8.7606,-3.8595 -11.1852,-8.6304 -3.145,-6.1886 -2.7151,-21.3824 0.9038,-31.9355 5.0951,-14.85813 9.785,-21.03293 21.0962,-27.77543 6.6847,-3.9847 10.0626,-7.2937 13.5,-13.2246 5.5818,-9.6307 12.3443,-13.1475 23.5518,-12.2479 13.0822,1.0501 18.6122,7.0054 19.2661,20.7479 0.6601,13.8746 -3.8446,26.83933 -15.3092,44.06053 -9.2341,13.8707 -20.0184,23.0327 -32.149,27.3126 -5.1519,1.8177 -14.9096,2.6573 -19.6745,1.6928 z"
       id="path3413"
       inkscape:connector-curvature="0" />
  </g>
</svg>
